# 3ds Max Wavefront OBJ Exporter v0.97b - (c)2007 guruware
# File Created: 17.09.2017 21:24:01

mtllib base.mtl

#
# object pCube1
#

v  6.1568 5.6494 19.6508
v  6.1568 9.1995 19.6508
v  -33.1448 9.1995 19.6508
v  -33.1448 5.6494 19.6508
v  3.7119 10.1425 17.2059
v  3.7119 10.1425 -17.2059
v  -30.6999 10.1425 -17.2059
v  -30.6999 10.1425 17.2059
v  6.1568 9.1995 -19.6508
v  6.1568 5.6494 -19.6508
v  -33.1448 5.6494 -19.6508
v  -33.1448 9.1995 -19.6508
v  2.8834 2.7118 -1.6679
v  2.8834 2.7118 1.6679
v  -31.2139 0.8636 1.6679
v  -31.2139 0.8636 -1.6679
v  2.5800 4.4460 -16.0740
v  -29.5680 4.4460 -16.0740
v  2.5800 4.4460 16.0740
v  -29.5680 4.4460 16.0740
v  2.5800 3.6551 -16.0740
v  -29.5680 3.6551 -16.0740
v  2.5800 3.6551 16.0740
v  -29.5680 3.6551 16.0740
v  51.1849 -12.8091 -33.6270
v  48.0093 -13.0058 -4.2368
v  15.3854 -13.0058 -4.2368
v  12.2097 -12.8091 -33.6270
v  12.2097 -12.8091 33.6270
v  15.3854 -13.0058 4.2368
v  48.0093 -13.0058 4.2368
v  51.1849 -12.8091 33.6270
v  24.4037 3.8741 -33.6270
v  -35.6922 3.8741 -33.6270
v  14.2622 -0.0023 -13.6642
v  14.4184 -0.4510 -7.4320
v  19.0342 -0.8378 -8.5449
v  19.1339 0.1416 -13.6268
v  -40.1952 2.0163 -4.2368
v  19.5072 2.0163 -4.2368
v  -35.6922 3.8741 33.6270
v  24.4037 3.8741 33.6270
v  -40.1952 2.0163 4.2368
v  19.5072 2.0163 4.2368
v  14.2622 -0.0023 13.6642
v  19.1339 0.1416 13.6268
v  19.0342 -0.8378 8.5449
v  14.4184 -0.4510 7.4320
v  44.8819 -1.7119 -33.6270
v  -0.6243 -5.5295 -33.6270
v  2.5513 -7.3872 -4.2368
v  41.7063 -3.5696 -4.2368
v  -51.3007 -11.9886 -4.2368
v  -52.2059 -11.7920 -33.6270
v  -14.5983 -11.9308 -33.6270
v  -11.4227 -12.1274 -4.2368
v  -0.6243 -5.5295 33.6270
v  44.8819 -1.7119 33.6270
v  -51.3007 -11.9886 4.2368
v  -11.4227 -12.1274 4.2368
v  -14.5983 -11.9308 33.6270
v  -52.2059 -11.7920 33.6270
v  41.7063 -3.5696 4.2368
v  2.5513 -7.3872 4.2368
v  14.4184 2.9336 -7.4320
v  14.2622 3.3823 -13.6642
v  19.0342 2.5468 -8.5449
v  19.1339 3.5262 -13.6268
v  14.2622 3.3823 13.6642
v  14.4184 2.9336 7.4320
v  19.1339 3.5262 13.6268
v  19.0342 2.5468 8.5449
# 72 vertices

vn 0.0000 0.0000 1.0000
vn 0.0000 1.0000 -0.0000
vn 0.0000 0.0000 -1.0000
vn 0.0541 -0.9985 -0.0000
vn 1.0000 0.0000 -0.0000
vn -1.0000 0.0000 -0.0000
vn 0.1636 -0.9729 -0.1636
vn -0.1636 -0.9729 -0.1636
vn 0.1636 -0.9729 0.1636
vn -0.1636 -0.9729 0.1636
vn 0.0000 -1.0000 -0.0067
vn 0.9520 0.3062 -0.0000
vn 0.0000 -1.0000 0.0067
vn -0.8614 0.5079 -0.0000
vn 0.0039 0.9995 0.0323
vn 0.1557 0.9858 0.0629
vn 0.0000 0.9999 0.0125
vn 0.0998 0.9926 0.0690
vn -0.0304 0.9816 0.1886
vn 0.0456 -0.8421 -0.5374
vn 0.0000 -0.9653 0.2613
vn -0.1004 0.9938 0.0474
vn 0.0691 0.9779 0.1974
vn 0.0039 0.9995 -0.0323
vn 0.0000 0.9999 -0.0125
vn 0.0000 0.4626 0.8866
vn 0.1179 0.7464 0.6550
vn 0.0691 0.9779 -0.1974
vn -0.1004 0.9938 -0.0474
vn 0.0000 -0.9653 -0.2613
vn 0.0456 -0.8421 0.5374
vn -0.0304 0.9816 -0.1886
vn 0.0998 0.9926 -0.0690
vn 0.1418 -0.3355 -0.9313
vn 0.1184 -0.3489 0.9296
vn -0.0031 -0.8733 0.4872
vn -0.0033 -0.8937 -0.4486
vn 0.1462 -0.7259 -0.6721
vn 0.1419 -0.7425 0.6547
vn 0.4968 0.6362 0.5903
vn -0.0031 -0.8733 -0.4872
vn 0.1419 -0.7425 -0.6547
vn 0.1973 -0.9799 0.0279
vn -0.0037 -1.0000 0.0066
vn 0.1184 0.6946 -0.7096
vn 0.4188 0.6042 -0.6779
vn 0.1184 -0.3489 -0.9296
vn 0.1668 0.9782 0.1236
vn 0.5658 0.8162 0.1175
vn 0.6121 0.7839 0.1039
vn -0.6870 0.7242 -0.0595
vn -0.7832 0.6211 0.0283
vn -0.7832 0.6211 -0.0283
vn -0.6870 0.7242 0.0595
vn 0.3885 -0.9192 0.0636
vn 0.8359 0.5363 0.1171
vn 0.8654 0.4916 0.0968
vn -0.4934 -0.8698 -0.0017
vn -0.4008 -0.9154 0.0372
vn 0.7463 0.4239 0.5132
vn -0.4008 -0.9154 -0.0372
vn -0.4934 -0.8698 0.0017
vn 0.6810 0.4369 -0.5877
vn 0.0000 0.9330 0.3599
vn 0.3599 0.9330 -0.0000
vn 0.0000 0.9330 -0.3599
vn -0.3599 0.9330 -0.0000
vn 0.0253 0.9957 0.0889
vn 0.0515 0.9914 0.1204
vn -0.0157 0.9821 0.1875
vn -0.2905 0.9453 0.1483
vn 0.2550 0.9622 0.0956
vn -0.0157 0.9821 -0.1875
vn 0.0515 0.9914 -0.1204
vn 0.0253 0.9957 -0.0889
vn 0.2550 0.9622 -0.0956
vn -0.2905 0.9453 -0.1483
vn 0.9997 0.0000 -0.0251
vn -0.2344 0.0000 -0.9721
vn -0.9998 0.0000 -0.0196
vn -0.0077 0.0000 1.0000
vn 0.9997 0.0000 0.0251
vn -0.0077 0.0000 -1.0000
vn -0.9998 0.0000 0.0196
vn -0.2344 0.0000 0.9721
# 85 vertex normals

vt 0.5709 0.7903 0.0000
vt 0.1923 0.7903 0.0000
vt 0.7958 0.0621 0.0000
vt 0.7958 0.7958 0.0000
vt 0.0621 0.7958 0.0000
vt 0.0621 0.0621 0.0000
vt 0.5709 0.2223 0.0000
vt 0.1923 0.2223 0.0000
vt 0.5394 0.4822 0.0000
vt 0.5394 0.5304 0.0000
vt 0.2109 0.5304 0.0000
vt 0.2109 0.4822 0.0000
vt 0.5365 0.2740 0.0000
vt 0.2268 0.2740 0.0000
vt 0.5365 0.7386 0.0000
vt 0.2268 0.7386 0.0000
vt 1.0047 0.0204 0.0000
vt 0.9741 0.4451 0.0000
vt 0.6598 0.4451 0.0000
vt 0.6292 0.0204 0.0000
vt 0.6954 0.9429 0.0000
vt 0.3883 0.9630 0.0000
vt 0.3171 0.9630 0.0000
vt 0.0100 0.9429 0.0000
vt 0.6292 0.9922 0.0000
vt 0.6598 0.5675 0.0000
vt 0.9741 0.5675 0.0000
vt 1.0047 0.9922 0.0000
vt 0.6954 0.8568 0.0000
vt 0.3883 0.9163 0.0000
vt 0.3171 0.9163 0.0000
vt 0.0100 0.8568 0.0000
vt 0.5298 0.4519 0.0000
vt 0.7400 0.9930 0.0000
vt 0.1611 0.9930 0.0000
vt 0.2201 0.4519 0.0000
vt 0.8568 0.1413 0.0000
vt 0.9900 0.1440 0.0000
vt 0.9673 0.2430 0.0000
vt 0.8578 0.2443 0.0000
vt 0.1244 0.4451 0.0000
vt 0.6995 0.4451 0.0000
vt 0.1177 0.0870 0.0000
vt 0.2042 0.0078 0.0000
vt 0.5298 0.5585 0.0000
vt 0.2201 0.5585 0.0000
vt 0.1611 0.0072 0.0000
vt 0.7400 0.0072 0.0000
vt 0.2042 1.0109 0.0000
vt 0.1177 0.9302 0.0000
vt 0.6995 0.5675 0.0000
vt 0.1244 0.5675 0.0000
vt 0.9891 0.0109 0.0000
vt 0.9852 0.1147 0.0000
vt 0.8750 0.1087 0.0000
vt 0.8568 0.0100 0.0000
vt 0.2600 0.9925 0.0000
vt 0.0627 0.6589 0.0000
vt 0.5011 0.4309 0.0000
vt 0.8389 0.9925 0.0000
vt 0.5362 0.4451 0.0000
vt 0.9134 0.4451 0.0000
vt 0.0174 0.4451 0.0000
vt 0.0087 0.0204 0.0000
vt 0.3710 0.0204 0.0000
vt 0.4016 0.4451 0.0000
vt 0.7400 0.9610 0.0000
vt 0.1611 0.9610 0.0000
vt 0.4989 0.4248 0.0000
vt 0.9373 0.6425 0.0000
vt 0.0174 0.5675 0.0000
vt 0.4016 0.5675 0.0000
vt 0.3710 0.9922 0.0000
vt 0.0087 0.9922 0.0000
vt 0.9134 0.5675 0.0000
vt 0.5362 0.5675 0.0000
vt 0.6928 0.0870 0.0000
vt 0.9067 0.0870 0.0000
vt 0.9373 0.9930 0.0000
vt 0.9373 0.0072 0.0000
vt 0.9067 0.9302 0.0000
vt 0.6928 0.9302 0.0000
vt 0.0020 0.9930 0.0000
vt 0.0107 0.0870 0.0000
vt 0.6357 0.0485 0.0000
vt 0.9980 0.0568 0.0000
vt 0.5056 0.0204 0.0000
vt 0.0107 0.9302 0.0000
vt 0.0020 0.0072 0.0000
vt 0.5056 0.9922 0.0000
vt 0.0020 0.0678 0.0000
vt 0.3643 0.0599 0.0000
vt 0.0020 -0.0039 0.0000
vt 0.3775 -0.0039 0.0000
vt 0.9674 0.0870 0.0000
vt 0.9980 0.9930 0.0000
vt 0.6225 0.0098 0.0000
vt 0.9980 0.0098 0.0000
vt 0.9980 0.0072 0.0000
vt 0.9674 0.9302 0.0000
vt 0.8479 0.0100 0.0000
vt 0.0100 0.0100 0.0000
vt 0.8479 0.8479 0.0000
vt 0.0100 0.8479 0.0000
vt 0.5327 0.0078 0.0000
vt 0.6438 0.1855 0.0000
vt 0.6423 0.3776 0.0000
vt 0.6883 0.2198 0.0000
vt 0.6892 0.3765 0.0000
vt 0.6423 0.6342 0.0000
vt 0.6438 0.8299 0.0000
vt 0.5327 1.0109 0.0000
vt 0.6892 0.6353 0.0000
vt 0.6883 0.7949 0.0000
vt 0.6505 0.3989 0.0000
vt 0.6490 0.3088 0.0000
vt 0.6950 0.3828 0.0000
vt 0.6959 0.3094 0.0000
vt 0.6505 0.6137 0.0000
vt 0.6490 0.7037 0.0000
vt 0.6959 0.7032 0.0000
vt 0.6950 0.6298 0.0000
# 122 texture coords

g pCube1
usemtl 03___Default
s off
f 1/1/1 2/1/1 3/2/1 
f 3/2/1 4/2/1 1/1/1 
f 5/3/2 6/4/2 7/5/2 
f 7/5/2 8/6/2 5/3/2 
f 9/7/3 10/7/3 11/8/3 
f 11/8/3 12/8/3 9/7/3 
f 13/9/4 14/10/4 15/11/4 
f 15/11/4 16/12/4 13/9/4 
f 10/7/5 9/7/5 2/1/5 
f 2/1/5 1/1/5 10/7/5 
f 4/2/6 3/2/6 12/8/6 
f 12/8/6 11/8/6 4/2/6 
s 1
f 10/7/7 17/13/7 18/14/8 
f 18/14/8 11/8/8 10/7/7 
f 1/1/9 19/15/9 17/13/7 
f 17/13/7 10/7/7 1/1/9 
f 4/2/10 20/16/10 19/15/9 
f 19/15/9 1/1/9 4/2/10 
f 11/8/8 18/14/8 20/16/10 
f 20/16/10 4/2/10 11/8/8 
s off
f 17/13/3 21/13/3 22/14/3 
f 22/14/3 18/14/3 17/13/3 
f 19/15/5 23/15/5 21/13/5 
f 21/13/5 17/13/5 19/15/5 
f 20/16/1 24/16/1 23/15/1 
f 23/15/1 19/15/1 20/16/1 
f 18/14/6 22/14/6 24/16/6 
f 24/16/6 20/16/6 18/14/6 
f 25/17/11 26/18/11 27/19/11 
f 27/19/11 28/20/11 25/17/11 
f 23/21/12 14/22/12 13/23/12 
f 13/23/12 21/24/12 23/21/12 
f 29/25/13 30/26/13 31/27/13 
f 31/27/13 32/28/13 29/25/13 
f 22/29/14 16/30/14 15/31/14 
f 15/31/14 24/32/14 22/29/14 
s 2
f 21/33/15 33/34/16 34/35/17 
f 34/35/17 22/36/17 21/33/15 
s off
f 35/37/18 36/38/18 37/39/18 
f 37/39/19 38/40/19 35/37/19 
f 13/9/20 16/12/20 39/41/20 
f 39/41/21 40/42/21 13/9/21 
f 22/36/22 34/35/22 39/43/22 
f 39/43/23 16/44/23 22/36/23 
s 3
f 23/45/24 24/46/25 41/47/26 
f 41/47/26 42/48/27 23/45/24 
s off
f 24/46/28 15/49/28 43/50/28 
f 43/50/29 41/47/29 24/46/29 
f 14/10/30 44/51/30 43/52/30 
f 43/52/31 15/11/31 14/10/31 
f 45/53/32 46/54/32 47/55/32 
f 47/55/33 48/56/33 45/53/33 
s 4
f 33/57/3 49/58/3 50/59/34 
f 50/59/34 34/60/3 33/57/3 
s 5
f 40/42/1 39/41/1 51/61/35 
f 51/61/35 52/62/1 40/42/1 
s 6
f 53/63/36 54/64/37 55/65/38 
f 55/65/38 56/66/39 53/63/36 
s 7
f 42/67/27 41/68/26 57/69/1 
f 57/69/1 58/70/40 42/67/27 
s 8
f 59/71/41 60/72/42 61/73/43 
f 61/73/43 62/74/44 59/71/41 
s 9
f 44/51/45 63/75/46 64/76/47 
f 64/76/47 43/52/3 44/51/45 
s 2
f 33/34/16 40/77/48 52/78/49 
f 52/78/49 49/79/50 33/34/16 
s 3
f 42/48/27 58/80/40 63/81/46 
f 63/81/46 44/82/45 42/48/27 
s off
f 39/43/51 34/35/51 54/83/51 
f 54/83/52 53/84/52 39/43/52 
s 4
f 34/60/3 50/59/34 55/85/38 
f 55/85/38 54/86/37 34/60/3 
s 6
f 50/87/34 51/61/35 56/66/39 
f 56/66/39 55/65/38 50/87/34 
s 5
f 39/41/1 53/63/36 56/66/39 
f 56/66/39 51/61/35 39/41/1 
s off
f 43/50/53 59/88/53 62/89/53 
f 62/89/54 41/47/54 43/50/54 
s 9
f 43/52/3 64/76/47 60/72/42 
f 60/72/42 59/71/41 43/52/3 
s 8
f 57/90/55 61/73/43 60/72/42 
f 60/72/42 64/76/47 57/90/55 
s 7
f 41/68/26 62/91/1 61/92/1 
f 61/92/1 57/69/1 41/68/26 
s 4
f 49/58/3 25/93/3 28/94/3 
f 28/94/3 50/59/34 49/58/3 
s 2
f 49/79/50 52/78/49 26/95/56 
f 26/95/56 25/96/57 49/79/50 
s 5
f 52/62/1 51/61/35 27/19/1 
f 27/19/1 26/18/1 52/62/1 
s off
f 51/61/58 50/87/58 28/20/58 
f 28/20/59 27/19/59 51/61/59 
s 7
f 58/70/40 57/69/1 29/97/1 
f 29/97/1 32/98/60 58/70/40 
s off
f 64/76/61 30/26/61 29/25/61 
f 29/25/62 57/90/62 64/76/62 
s 9
f 63/75/46 31/27/63 30/26/3 
f 30/26/3 64/76/47 63/75/46 
s 3
f 58/80/40 32/99/60 31/100/63 
f 31/100/63 63/81/46 58/80/40 
s off
f 2/101/64 5/3/64 8/6/64 
f 8/6/64 3/102/64 2/101/64 
f 9/103/65 6/4/65 5/3/65 
f 5/3/65 2/101/65 9/103/65 
f 12/104/66 7/5/66 6/4/66 
f 6/4/66 9/103/66 12/104/66 
f 3/102/67 8/6/67 7/5/67 
f 7/5/67 12/104/67 3/102/67 
s 2
f 21/33/15 13/105/68 65/106/69 
f 65/106/69 66/107/70 21/33/15 
f 40/77/48 67/108/71 65/106/69 
f 65/106/69 13/105/68 40/77/48 
f 40/77/48 33/34/16 68/109/72 
f 68/109/72 67/108/71 40/77/48 
f 21/33/15 66/107/70 68/109/72 
f 68/109/72 33/34/16 21/33/15 
s 3
f 23/45/24 69/110/73 70/111/74 
f 70/111/74 14/112/75 23/45/24 
f 23/45/24 42/48/27 71/113/76 
f 71/113/76 69/110/73 23/45/24 
f 44/82/45 72/114/77 71/113/76 
f 71/113/76 42/48/27 44/82/45 
f 44/82/45 14/112/75 70/111/74 
f 70/111/74 72/114/77 44/82/45 
s off
f 65/115/78 36/115/78 35/116/78 
f 35/116/78 66/116/78 65/115/78 
f 67/117/79 37/117/79 36/115/79 
f 36/115/79 65/115/79 67/117/79 
f 67/117/80 68/118/80 38/118/80 
f 38/118/80 37/117/80 67/117/80 
f 66/116/81 35/116/81 38/118/81 
f 38/118/81 68/118/81 66/116/81 
f 70/119/82 69/120/82 45/120/82 
f 45/120/82 48/119/82 70/119/82 
f 69/120/83 71/121/83 46/121/83 
f 46/121/83 45/120/83 69/120/83 
f 72/122/84 47/122/84 46/121/84 
f 46/121/84 71/121/84 72/122/84 
f 72/122/85 70/119/85 48/119/85 
f 48/119/85 47/122/85 72/122/85 
# 140 faces

