# 3ds Max Wavefront OBJ Exporter v0.97b - (c)2007 guruware
# File Created: 17.09.2017 18:41:48

mtllib torretaBase.mtl

#
# object pCylinder5
#

v  4.6883 3.3694 -15.5790
v  4.6883 3.3694 6.6339
v  5.5008 1.7747 6.6339
v  5.5008 1.7747 -15.5790
v  3.4227 4.6350 -15.5790
v  3.4227 4.6350 6.6339
v  1.8280 5.4476 6.6339
v  1.8280 5.4476 -15.5790
v  0.0602 5.7276 -15.5790
v  0.0602 5.7276 6.6339
v  -1.7076 5.4476 -15.5790
v  -1.7076 5.4476 6.6339
v  -3.3023 4.6350 -15.5790
v  -3.3023 4.6350 6.6339
v  -4.5679 3.3694 -15.5790
v  -4.5679 3.3694 6.6339
v  -5.3804 1.7747 6.6339
v  -5.3804 1.7747 -15.5790
v  -5.6604 0.0069 -15.5790
v  -5.6604 0.0069 6.6339
v  -5.3804 -1.7608 -15.5790
v  -5.3804 -1.7608 6.6339
v  -4.5679 -3.3556 -15.5790
v  -4.5679 -3.3556 6.6339
v  -3.3023 -4.6211 6.6339
v  -3.3023 -4.6211 -15.5790
v  -1.7076 -5.4337 -15.5790
v  -1.7076 -5.4337 6.6339
v  0.0602 -5.7137 6.6339
v  0.0602 -5.7137 -15.5790
v  1.8280 -5.4337 6.6339
v  1.8280 -5.4337 -15.5790
v  3.4227 -4.6211 -15.5790
v  3.4227 -4.6211 6.6339
v  4.6883 -3.3556 6.6339
v  4.6883 -3.3556 -15.5790
v  5.5008 -1.7608 6.6339
v  5.5008 -1.7608 -15.5790
v  5.7808 0.0069 6.6339
v  5.7808 0.0069 -15.5790
v  0.0602 0.0069 -15.5790
v  0.0602 0.0069 6.6339
# 42 vertices

vn 0.8090 0.5878 -0.0000
vn 0.9511 0.3090 -0.0000
vn 0.5878 0.8090 -0.0000
vn 0.3090 0.9511 -0.0000
vn 0.0000 1.0000 -0.0000
vn -0.3090 0.9511 -0.0000
vn -0.5878 0.8090 -0.0000
vn -0.8090 0.5878 -0.0000
vn -0.9511 0.3090 -0.0000
vn -1.0000 0.0000 -0.0000
vn -0.9511 -0.3090 -0.0000
vn -0.8090 -0.5878 -0.0000
vn -0.5878 -0.8090 -0.0000
vn -0.3090 -0.9511 -0.0000
vn 0.0000 -1.0000 -0.0000
vn 0.3090 -0.9511 -0.0000
vn 0.5878 -0.8090 -0.0000
vn 0.8090 -0.5878 -0.0000
vn 0.9511 -0.3090 -0.0000
vn 1.0000 -0.0000 -0.0000
vn 0.0000 0.0000 -1.0000
vn 0.0000 0.0000 1.0000
# 22 vertex normals

vt 0.3875 0.3125 0.0000
vt 0.3875 0.6884 0.0000
vt 0.3750 0.6884 0.0000
vt 0.3750 0.3125 0.0000
vt 0.4000 0.3125 0.0000
vt 0.4000 0.6884 0.0000
vt 0.4125 0.6884 0.0000
vt 0.4125 0.3125 0.0000
vt 0.4250 0.3125 0.0000
vt 0.4250 0.6884 0.0000
vt 0.4375 0.3125 0.0000
vt 0.4375 0.6884 0.0000
vt 0.4500 0.3125 0.0000
vt 0.4500 0.6884 0.0000
vt 0.4625 0.3125 0.0000
vt 0.4625 0.6884 0.0000
vt 0.4750 0.6884 0.0000
vt 0.4750 0.3125 0.0000
vt 0.4875 0.3125 0.0000
vt 0.4875 0.6884 0.0000
vt 0.5000 0.3125 0.0000
vt 0.5000 0.6884 0.0000
vt 0.5125 0.3125 0.0000
vt 0.5125 0.6884 0.0000
vt 0.5250 0.6884 0.0000
vt 0.5250 0.3125 0.0000
vt 0.5375 0.3125 0.0000
vt 0.5375 0.6884 0.0000
vt 0.5500 0.6884 0.0000
vt 0.5500 0.3125 0.0000
vt 0.5625 0.6884 0.0000
vt 0.5625 0.3125 0.0000
vt 0.5750 0.3125 0.0000
vt 0.5750 0.6884 0.0000
vt 0.5875 0.6884 0.0000
vt 0.5875 0.3125 0.0000
vt 0.6000 0.6884 0.0000
vt 0.6000 0.3125 0.0000
vt 0.6125 0.6884 0.0000
vt 0.6125 0.3125 0.0000
vt 0.6250 0.6884 0.0000
vt 0.6250 0.3125 0.0000
vt 0.6264 0.0644 0.0000
vt 0.6486 0.1080 0.0000
vt 0.5000 0.1500 0.0000
vt 0.5918 0.0298 0.0000
vt 0.5483 0.0076 0.0000
vt 0.5000 -0.0000 0.0000
vt 0.4517 0.0076 0.0000
vt 0.4082 0.0298 0.0000
vt 0.3736 0.0644 0.0000
vt 0.3514 0.1080 0.0000
vt 0.3438 0.1563 0.0000
vt 0.3514 0.2045 0.0000
vt 0.3736 0.2481 0.0000
vt 0.4082 0.2827 0.0000
vt 0.4517 0.3049 0.0000
vt 0.5483 0.3049 0.0000
vt 0.5918 0.2827 0.0000
vt 0.6264 0.2481 0.0000
vt 0.6486 0.2045 0.0000
vt 0.6563 0.1563 0.0000
vt 0.6486 0.8920 0.0000
vt 0.6264 0.9356 0.0000
vt 0.5000 0.8375 0.0000
vt 0.5918 0.9702 0.0000
vt 0.5483 0.9924 0.0000
vt 0.5000 1.0000 0.0000
vt 0.4517 0.9924 0.0000
vt 0.4082 0.9702 0.0000
vt 0.3736 0.9356 0.0000
vt 0.3514 0.8920 0.0000
vt 0.3438 0.8438 0.0000
vt 0.3514 0.7955 0.0000
vt 0.3736 0.7519 0.0000
vt 0.4082 0.7173 0.0000
vt 0.4517 0.6951 0.0000
vt 0.5000 0.6875 0.0000
vt 0.5483 0.6951 0.0000
vt 0.5918 0.7173 0.0000
vt 0.6264 0.7519 0.0000
vt 0.6486 0.7955 0.0000
vt 0.6563 0.8438 0.0000
# 83 texture coords

g pCylinder5
usemtl 03___Default
s 1
f 1/1/1 2/2/1 3/3/2 
f 3/3/2 4/4/2 1/1/1 
f 2/2/1 1/1/1 5/5/3 
f 5/5/3 6/6/3 2/2/1 
f 7/7/4 6/6/3 5/5/3 
f 5/5/3 8/8/4 7/7/4 
f 7/7/4 8/8/4 9/9/5 
f 9/9/5 10/10/5 7/7/4 
f 11/11/6 12/12/6 10/10/5 
f 10/10/5 9/9/5 11/11/6 
f 11/11/6 13/13/7 14/14/7 
f 14/14/7 12/12/6 11/11/6 
f 15/15/8 16/16/8 14/14/7 
f 14/14/7 13/13/7 15/15/8 
f 17/17/9 16/16/8 15/15/8 
f 15/15/8 18/18/9 17/17/9 
f 19/19/10 20/20/10 17/17/9 
f 17/17/9 18/18/9 19/19/10 
f 19/19/10 21/21/11 22/22/11 
f 22/22/11 20/20/10 19/19/10 
f 21/21/11 23/23/12 24/24/12 
f 24/24/12 22/22/11 21/21/11 
f 25/25/13 24/24/12 23/23/12 
f 23/23/12 26/26/13 25/25/13 
f 27/27/14 28/28/14 25/25/13 
f 25/25/13 26/26/13 27/27/14 
f 29/29/15 28/28/14 27/27/14 
f 27/27/14 30/30/15 29/29/15 
f 31/31/16 29/29/15 30/30/15 
f 30/30/15 32/32/16 31/31/16 
f 31/31/16 32/32/16 33/33/17 
f 33/33/17 34/34/17 31/31/16 
f 35/35/18 34/34/17 33/33/17 
f 33/33/17 36/36/18 35/35/18 
f 37/37/19 35/35/18 36/36/18 
f 36/36/18 38/38/19 37/37/19 
f 39/39/20 37/37/19 38/38/19 
f 38/38/19 40/40/20 39/39/20 
f 3/41/2 39/39/20 40/40/20 
f 40/40/20 4/42/2 3/41/2 
s 2
f 1/43/21 4/44/21 41/45/21 
f 5/46/21 1/43/21 41/45/21 
f 8/47/21 5/46/21 41/45/21 
f 9/48/21 8/47/21 41/45/21 
f 11/49/21 9/48/21 41/45/21 
f 13/50/21 11/49/21 41/45/21 
f 15/51/21 13/50/21 41/45/21 
f 18/52/21 15/51/21 41/45/21 
f 19/53/21 18/52/21 41/45/21 
f 21/54/21 19/53/21 41/45/21 
f 23/55/21 21/54/21 41/45/21 
f 26/56/21 23/55/21 41/45/21 
f 27/57/21 26/56/21 41/45/21 
f 30/21/21 27/57/21 41/45/21 
f 32/58/21 30/21/21 41/45/21 
f 33/59/21 32/58/21 41/45/21 
f 36/60/21 33/59/21 41/45/21 
f 38/61/21 36/60/21 41/45/21 
f 40/62/21 38/61/21 41/45/21 
f 4/44/21 40/62/21 41/45/21 
s 3
f 3/63/22 2/64/22 42/65/22 
f 2/64/22 6/66/22 42/65/22 
f 6/66/22 7/67/22 42/65/22 
f 7/67/22 10/68/22 42/65/22 
f 10/68/22 12/69/22 42/65/22 
f 12/69/22 14/70/22 42/65/22 
f 14/70/22 16/71/22 42/65/22 
f 16/71/22 17/72/22 42/65/22 
f 17/72/22 20/73/22 42/65/22 
f 20/73/22 22/74/22 42/65/22 
f 22/74/22 24/75/22 42/65/22 
f 24/75/22 25/76/22 42/65/22 
f 25/76/22 28/77/22 42/65/22 
f 28/77/22 29/78/22 42/65/22 
f 29/78/22 31/79/22 42/65/22 
f 31/79/22 34/80/22 42/65/22 
f 34/80/22 35/81/22 42/65/22 
f 35/81/22 37/82/22 42/65/22 
f 37/82/22 39/83/22 42/65/22 
f 39/83/22 3/63/22 42/65/22 
# 80 faces

#
# object pCylinder10
#

v  0.3645 3.7657 -5.1134
v  8.1388 3.7657 -5.1134
v  8.1388 1.9831 -6.0217
v  0.3645 1.9831 -6.0217
v  0.3645 5.1805 -3.6987
v  8.1388 5.1805 -3.6987
v  8.1388 6.0888 -1.9160
v  0.3645 6.0888 -1.9160
v  0.3645 6.4018 0.0601
v  8.1388 6.4018 0.0601
v  0.3645 6.0888 2.0362
v  8.1388 6.0888 2.0362
v  0.3645 5.1805 3.8189
v  8.1388 5.1805 3.8189
v  0.3645 3.7657 5.2336
v  8.1388 3.7657 5.2336
v  8.1388 1.9831 6.1420
v  0.3645 1.9831 6.1420
v  0.3645 0.0069 6.4549
v  8.1388 0.0069 6.4549
v  0.3645 -1.9692 6.1420
v  8.1388 -1.9692 6.1420
v  0.3645 -3.7518 5.2336
v  8.1388 -3.7518 5.2336
v  8.1388 -5.1666 3.8189
v  0.3645 -5.1666 3.8189
v  0.3645 -6.0749 2.0362
v  8.1388 -6.0749 2.0362
v  8.1388 -6.3879 0.0601
v  0.3645 -6.3879 0.0601
v  8.1388 -6.0749 -1.9160
v  0.3645 -6.0749 -1.9160
v  0.3645 -5.1666 -3.6987
v  8.1388 -5.1666 -3.6987
v  8.1388 -3.7518 -5.1134
v  0.3645 -3.7518 -5.1134
v  8.1388 -1.9692 -6.0217
v  0.3645 -1.9692 -6.0217
v  8.1388 0.0069 -6.3347
v  0.3645 0.0069 -6.3347
v  0.3645 0.0069 0.0601
v  8.1388 0.0069 0.0601
# 42 vertices

vn 0.0000 0.5878 -0.8090
vn 0.0000 0.3090 -0.9511
vn 0.0000 0.8090 -0.5878
vn 0.0000 0.9511 -0.3090
vn 0.0000 1.0000 -0.0000
vn 0.0000 0.9511 0.3090
vn 0.0000 0.8090 0.5878
vn 0.0000 0.5878 0.8090
vn 0.0000 0.3090 0.9511
vn 0.0000 0.0000 1.0000
vn 0.0000 -0.3090 0.9511
vn 0.0000 -0.5878 0.8090
vn 0.0000 -0.8090 0.5878
vn 0.0000 -0.9511 0.3090
vn 0.0000 -1.0000 -0.0000
vn 0.0000 -0.9511 -0.3090
vn 0.0000 -0.8090 -0.5878
vn 0.0000 -0.5878 -0.8090
vn 0.0000 -0.3090 -0.9511
vn 0.0000 -0.0000 -1.0000
vn -1.0000 0.0000 -0.0000
vn 1.0000 0.0000 -0.0000
# 22 vertex normals

vt 0.3875 0.3125 0.0000
vt 0.3875 0.6884 0.0000
vt 0.3750 0.6884 0.0000
vt 0.3750 0.3125 0.0000
vt 0.4000 0.3125 0.0000
vt 0.4000 0.6884 0.0000
vt 0.4125 0.6884 0.0000
vt 0.4125 0.3125 0.0000
vt 0.4250 0.3125 0.0000
vt 0.4250 0.6884 0.0000
vt 0.4375 0.3125 0.0000
vt 0.4375 0.6884 0.0000
vt 0.4500 0.3125 0.0000
vt 0.4500 0.6884 0.0000
vt 0.4625 0.3125 0.0000
vt 0.4625 0.6884 0.0000
vt 0.4750 0.6884 0.0000
vt 0.4750 0.3125 0.0000
vt 0.4875 0.3125 0.0000
vt 0.4875 0.6884 0.0000
vt 0.5000 0.3125 0.0000
vt 0.5000 0.6884 0.0000
vt 0.5125 0.3125 0.0000
vt 0.5125 0.6884 0.0000
vt 0.5250 0.6884 0.0000
vt 0.5250 0.3125 0.0000
vt 0.5375 0.3125 0.0000
vt 0.5375 0.6884 0.0000
vt 0.5500 0.6884 0.0000
vt 0.5500 0.3125 0.0000
vt 0.5625 0.6884 0.0000
vt 0.5625 0.3125 0.0000
vt 0.5750 0.3125 0.0000
vt 0.5750 0.6884 0.0000
vt 0.5875 0.6884 0.0000
vt 0.5875 0.3125 0.0000
vt 0.6000 0.6884 0.0000
vt 0.6000 0.3125 0.0000
vt 0.6125 0.6884 0.0000
vt 0.6125 0.3125 0.0000
vt 0.6250 0.6884 0.0000
vt 0.6250 0.3125 0.0000
vt 0.6264 0.0644 0.0000
vt 0.6486 0.1080 0.0000
vt 0.5000 0.1500 0.0000
vt 0.5918 0.0298 0.0000
vt 0.5483 0.0076 0.0000
vt 0.5000 -0.0000 0.0000
vt 0.4517 0.0076 0.0000
vt 0.4082 0.0298 0.0000
vt 0.3736 0.0644 0.0000
vt 0.3514 0.1080 0.0000
vt 0.3438 0.1563 0.0000
vt 0.3514 0.2045 0.0000
vt 0.3736 0.2481 0.0000
vt 0.4082 0.2827 0.0000
vt 0.4517 0.3049 0.0000
vt 0.5483 0.3049 0.0000
vt 0.5918 0.2827 0.0000
vt 0.6264 0.2481 0.0000
vt 0.6486 0.2045 0.0000
vt 0.6563 0.1563 0.0000
vt 0.6486 0.8920 0.0000
vt 0.6264 0.9356 0.0000
vt 0.5000 0.8375 0.0000
vt 0.5918 0.9702 0.0000
vt 0.5483 0.9924 0.0000
vt 0.5000 1.0000 0.0000
vt 0.4517 0.9924 0.0000
vt 0.4082 0.9702 0.0000
vt 0.3736 0.9356 0.0000
vt 0.3514 0.8920 0.0000
vt 0.3438 0.8438 0.0000
vt 0.3514 0.7955 0.0000
vt 0.3736 0.7519 0.0000
vt 0.4082 0.7173 0.0000
vt 0.4517 0.6951 0.0000
vt 0.5000 0.6875 0.0000
vt 0.5483 0.6951 0.0000
vt 0.5918 0.7173 0.0000
vt 0.6264 0.7519 0.0000
vt 0.6486 0.7955 0.0000
vt 0.6563 0.8438 0.0000
# 83 texture coords

g pCylinder10
usemtl 03___Default
s 1
f 43/84/23 44/85/23 45/86/24 
f 45/86/24 46/87/24 43/84/23 
f 44/85/23 43/84/23 47/88/25 
f 47/88/25 48/89/25 44/85/23 
f 49/90/26 48/89/25 47/88/25 
f 47/88/25 50/91/26 49/90/26 
f 49/90/26 50/91/26 51/92/27 
f 51/92/27 52/93/27 49/90/26 
f 53/94/28 54/95/28 52/93/27 
f 52/93/27 51/92/27 53/94/28 
f 53/94/28 55/96/29 56/97/29 
f 56/97/29 54/95/28 53/94/28 
f 57/98/30 58/99/30 56/97/29 
f 56/97/29 55/96/29 57/98/30 
f 59/100/31 58/99/30 57/98/30 
f 57/98/30 60/101/31 59/100/31 
f 61/102/32 62/103/32 59/100/31 
f 59/100/31 60/101/31 61/102/32 
f 61/102/32 63/104/33 64/105/33 
f 64/105/33 62/103/32 61/102/32 
f 63/104/33 65/106/34 66/107/34 
f 66/107/34 64/105/33 63/104/33 
f 67/108/35 66/107/34 65/106/34 
f 65/106/34 68/109/35 67/108/35 
f 69/110/36 70/111/36 67/108/35 
f 67/108/35 68/109/35 69/110/36 
f 71/112/37 70/111/36 69/110/36 
f 69/110/36 72/113/37 71/112/37 
f 73/114/38 71/112/37 72/113/37 
f 72/113/37 74/115/38 73/114/38 
f 73/114/38 74/115/38 75/116/39 
f 75/116/39 76/117/39 73/114/38 
f 77/118/40 76/117/39 75/116/39 
f 75/116/39 78/119/40 77/118/40 
f 79/120/41 77/118/40 78/119/40 
f 78/119/40 80/121/41 79/120/41 
f 81/122/42 79/120/41 80/121/41 
f 80/121/41 82/123/42 81/122/42 
f 45/124/24 81/122/42 82/123/42 
f 82/123/42 46/125/24 45/124/24 
s 2
f 43/126/43 46/127/43 83/128/43 
f 47/129/43 43/126/43 83/128/43 
f 50/130/43 47/129/43 83/128/43 
f 51/131/43 50/130/43 83/128/43 
f 53/132/43 51/131/43 83/128/43 
f 55/133/43 53/132/43 83/128/43 
f 57/134/43 55/133/43 83/128/43 
f 60/135/43 57/134/43 83/128/43 
f 61/136/43 60/135/43 83/128/43 
f 63/137/43 61/136/43 83/128/43 
f 65/138/43 63/137/43 83/128/43 
f 68/139/43 65/138/43 83/128/43 
f 69/140/43 68/139/43 83/128/43 
f 72/104/43 69/140/43 83/128/43 
f 74/141/43 72/104/43 83/128/43 
f 75/142/43 74/141/43 83/128/43 
f 78/143/43 75/142/43 83/128/43 
f 80/144/43 78/143/43 83/128/43 
f 82/145/43 80/144/43 83/128/43 
f 46/127/43 82/145/43 83/128/43 
s 3
f 45/146/44 44/147/44 84/148/44 
f 44/147/44 48/149/44 84/148/44 
f 48/149/44 49/150/44 84/148/44 
f 49/150/44 52/151/44 84/148/44 
f 52/151/44 54/152/44 84/148/44 
f 54/152/44 56/153/44 84/148/44 
f 56/153/44 58/154/44 84/148/44 
f 58/154/44 59/155/44 84/148/44 
f 59/155/44 62/156/44 84/148/44 
f 62/156/44 64/157/44 84/148/44 
f 64/157/44 66/158/44 84/148/44 
f 66/158/44 67/159/44 84/148/44 
f 67/159/44 70/160/44 84/148/44 
f 70/160/44 71/161/44 84/148/44 
f 71/161/44 73/162/44 84/148/44 
f 73/162/44 76/163/44 84/148/44 
f 76/163/44 77/164/44 84/148/44 
f 77/164/44 79/165/44 84/148/44 
f 79/165/44 81/166/44 84/148/44 
f 81/166/44 45/146/44 84/148/44 
# 80 faces

